<svg xmlns="http://www.w3.org/2000/svg" width="111.59" height="35" viewBox="0 0 111.59 35"><rect class="svg__rect" x="0" y="0" width="72.31" height="35" fill="#5D9741"/><rect class="svg__rect" x="70.31" y="0" width="41.28" height="35" fill="#8FC965"/><path class="svg__text" d="M13.78 19.42L13.78 19.42L15.27 19.42Q15.27 20.15 15.75 20.55Q16.23 20.95 17.12 20.95L17.12 20.95Q17.90 20.95 18.29 20.63Q18.68 20.32 18.68 19.80L18.68 19.80Q18.68 19.24 18.28 18.94Q17.89 18.63 16.85 18.32Q15.82 18.01 15.21 17.63L15.21 17.63Q14.05 16.90 14.05 15.72L14.05 15.72Q14.05 14.69 14.89 14.02Q15.73 13.35 17.07 13.35L17.07 13.35Q17.96 13.35 18.66 13.68Q19.36 14.01 19.75 14.61Q20.15 15.22 20.15 15.96L20.15 15.96L18.68 15.96Q18.68 15.29 18.26 14.91Q17.84 14.54 17.06 14.54L17.06 14.54Q16.33 14.54 15.93 14.85Q15.53 15.16 15.53 15.71L15.53 15.71Q15.53 16.18 15.96 16.50Q16.40 16.81 17.39 17.10Q18.39 17.40 18.99 17.78Q19.60 18.16 19.88 18.65Q20.16 19.13 20.16 19.79L20.16 19.79Q20.16 20.86 19.34 21.49Q18.52 22.12 17.12 22.12L17.12 22.12Q16.20 22.12 15.42 21.77Q14.64 21.43 14.21 20.83Q13.78 20.22 13.78 19.42ZM30.03 22L24.45 22L24.45 13.47L29.98 13.47L29.98 14.66L25.93 14.66L25.93 17.02L29.43 17.02L29.43 18.19L25.93 18.19L25.93 20.82L30.03 20.82L30.03 22ZM35.70 22L34.22 22L34.22 13.47L37.22 13.47Q38.70 13.47 39.50 14.13Q40.30 14.79 40.30 16.05L40.30 16.05Q40.30 16.90 39.89 17.48Q39.48 18.06 38.74 18.37L38.74 18.37L40.65 21.92L40.65 22L39.07 22L37.36 18.71L35.70 18.71L35.70 22ZM35.70 14.66L35.70 17.52L37.23 17.52Q37.98 17.52 38.40 17.15Q38.82 16.77 38.82 16.11L38.82 16.11Q38.82 15.43 38.43 15.05Q38.04 14.68 37.27 14.66L37.27 14.66L35.70 14.66ZM46.26 22L44.79 22L44.79 13.47L46.26 13.47L46.26 22ZM51.85 22L50.31 22L53.53 13.47L54.86 13.47L58.09 22L56.55 22L55.85 20.01L52.54 20.01L51.85 22ZM54.20 15.28L52.96 18.82L55.43 18.82L54.20 15.28Z" fill="#FFFFFF"/><path class="svg__text" d="M85.29 15.44L83.73 15.44L83.73 13.60L87.67 13.60L87.67 22L85.29 22L85.29 15.44ZM92.10 21.34L92.10 21.34L92.95 19.55Q93.46 19.88 94.06 20.07Q94.67 20.25 95.28 20.25L95.28 20.25Q95.89 20.25 96.25 20.01Q96.62 19.78 96.62 19.36L96.62 19.36Q96.62 18.94 96.26 18.72Q95.91 18.51 94.99 18.51L94.99 18.51L92.71 18.51L93.13 13.60L98.48 13.60L98.48 15.44L95.10 15.44L94.99 16.66L95.55 16.66Q97.32 16.66 98.16 17.38Q99.01 18.10 99.01 19.30L99.01 19.30Q99.01 20.08 98.61 20.73Q98.21 21.39 97.39 21.78Q96.56 22.17 95.35 22.17L95.35 22.17Q94.46 22.17 93.59 21.95Q92.72 21.74 92.10 21.34Z" fill="#FFFFFF" x="83.31"/></svg>